{
    "accessors" : [
        {
            "bufferView" : 0, 
            "componentType" : 5123, 
            "count" : 1194, 
            "max" : [
                747
            ], 
            "min" : [
                0
            ], 
            "type" : "SCALAR"
        }, 
        {
            "bufferView" : 1, 
            "componentType" : 5126, 
            "count" : 748, 
            "max" : [
                1.2375328540802002, 
                0.8529574871063232, 
                0.30666545033454895
            ], 
            "min" : [
                -1.2375328540802002, 
                -1.435592532157898, 
                -0.15054719150066376
            ], 
            "type" : "VEC3"
        }, 
        {
            "bufferView" : 2, 
            "componentType" : 5126, 
            "count" : 748, 
            "max" : [
                1.0, 
                1.0, 
                1.0
            ], 
            "min" : [
                -1.0, 
                -1.0, 
                -1.0
            ], 
            "type" : "VEC3"
        }
    ], 
    "asset" : {
        "generator" : "Khronos Blender glTF 2.0 exporter", 
        "version" : "2.0"
    }, 
    "bufferViews" : [
        {
            "buffer" : 0, 
            "byteLength" : 2388, 
            "byteOffset" : 0, 
            "target" : 34963
        }, 
        {
            "buffer" : 0, 
            "byteLength" : 8976, 
            "byteOffset" : 2388, 
            "target" : 34962
        }, 
        {
            "buffer" : 0, 
            "byteLength" : 8976, 
            "byteOffset" : 11364, 
            "target" : 34962
        }
    ], 
    "buffers" : [
        {
            "byteLength" : 20340, 
            "uri" : "human.bin"
        }
    ], 
    "meshes" : [
        {
            "name" : "Cube.001", 
            "primitives" : [
                {
                    "attributes" : {
                        "NORMAL" : 2, 
                        "POSITION" : 1
                    }, 
                    "indices" : 0
                }
            ]
        }
    ], 
    "nodes" : [
        {
            "mesh" : 0, 
            "name" : "Human", 
            "translation" : [
                -1.2859740257263184, 
                1.1103227138519287, 
                0.17538148164749146
            ]
        }
    ], 
    "scene" : 0, 
    "scenes" : [
        {
            "name" : "Scene", 
            "nodes" : [
                0
            ]
        }
    ]
}
